<?xml version="1.0" standalone="no"?>
<!DOCTYPE svg PUBLIC "-//W3C//DTD SVG 20010904//EN"
 "http://www.w3.org/TR/2001/REC-SVG-20010904/DTD/svg10.dtd">
<svg version="1.0" xmlns="http://www.w3.org/2000/svg"
 width="70.000000pt" height="70.000000pt" viewBox="0 0 640.000000 640.000000"
 preserveAspectRatio="xMidYMid meet">
<metadata>
Created by potrace 1.16, written by Peter Selinger 2001-2019
</metadata>
<g transform="translate(0.000000,640.000000) scale(0.100000,-0.100000)"
fill="#000000" stroke="none">
<path d="M3025 4944 c-106 -9 -304 -47 -393 -76 -93 -29 -123 -52 -38 -28 47
13 80 6 55 -12 -11 -7 -9 -8 4 -4 10 3 24 6 30 6 7 0 6 5 -3 11 -12 8 -10 9 7
4 12 -3 57 3 100 14 150 37 226 46 408 46 192 0 260 -9 441 -55 677 -173 1212
-743 1344 -1429 50 -255 48 -499 -5 -747 -97 -462 -376 -877 -767 -1141 -186
-126 -354 -204 -555 -259 l-93 -25 -67 35 c-38 20 -102 61 -143 92 -59 44 -68
49 -41 21 30 -32 31 -35 11 -30 -15 4 -21 2 -17 -4 8 -13 162 -89 200 -98 15
-4 27 -11 27 -15 0 -7 -129 -30 -170 -30 -28 0 -25 -12 8 -30 24 -14 38 -14
142 2 435 69 801 260 1099 574 466 492 631 1193 434 1844 -37 124 -42 135
-113 285 -175 367 -504 690 -883 870 -173 82 -329 130 -522 161 -90 14 -406
26 -500 18z m1285 -369 c254 -179 468 -432 604 -715 317 -659 218 -1427 -257
-1997 -85 -102 -224 -230 -343 -314 -82 -59 -194 -125 -194 -115 0 3 13 12 29
20 16 9 75 50 132 92 586 435 870 1168 728 1879 -99 495 -367 899 -796 1199
-46 31 -83 59 -83 61 0 7 102 -55 180 -110z"/>
<path d="M3567 4828 c-2 -7 -2 -65 1 -128 5 -142 -16 -285 -56 -373 -43 -94
-173 -248 -349 -410 -87 -80 -159 -144 -160 -143 -2 1 4 39 13 84 16 79 18 82
59 106 127 75 157 268 70 450 -41 87 -92 144 -169 191 -69 40 -71 41 -73 18
-2 -31 -12 -56 -70 -185 -27 -58 -37 -69 -46 -45 -3 6 -6 -47 -6 -119 -1 -150
11 -199 65 -262 36 -42 118 -83 133 -66 13 14 31 156 31 242 0 119 -31 210
-99 296 -39 49 -33 60 8 14 40 -44 86 -139 101 -209 23 -102 -7 -455 -40 -492
-4 -5 -30 6 -58 25 -43 28 -52 39 -58 72 -12 71 -90 136 -179 151 -37 6 -39 5
-21 -9 16 -13 17 -16 4 -16 -11 0 -15 -6 -11 -20 4 -15 1 -19 -9 -15 -8 3 -20
0 -27 -8 -15 -18 -1 -29 59 -46 91 -26 289 -143 290 -171 0 -8 -34 -48 -77
-88 -66 -62 -87 -92 -30 -44 9 8 20 12 24 9 3 -4 1 -7 -6 -7 -7 0 -9 -4 -6
-10 3 -5 1 -10 -6 -10 -9 0 -9 -3 0 -14 10 -11 5 -22 -21 -52 -31 -36 -29 -35
42 17 85 62 155 105 284 173 107 56 97 40 -49 -77 -105 -84 -295 -271 -295
-289 0 -6 9 -3 20 7 20 18 21 18 14 0 -4 -10 -3 -16 2 -13 5 4 8 -14 7 -40 -1
-26 -2 -73 -4 -104 -1 -36 -5 -55 -12 -51 -6 4 -7 1 -2 -6 4 -7 -1 -22 -12
-34 -11 -12 -23 -29 -27 -37 -4 -8 14 9 41 39 26 30 128 121 225 203 346 291
472 427 562 607 132 262 150 468 61 689 -33 81 -111 212 -127 212 -3 0 -8 -6
-11 -12z"/>
<path d="M3760 4798 c0 -4 14 -47 30 -97 92 -275 75 -585 -46 -826 -71 -139
-146 -237 -307 -397 -82 -82 -145 -148 -140 -148 5 0 20 11 33 25 13 14 28 25
34 25 6 0 3 -5 -7 -11 -9 -6 -15 -14 -12 -20 4 -5 1 -9 -6 -9 -7 0 -4 -7 7
-16 10 -8 13 -13 7 -9 -7 3 -13 2 -13 -2 0 -5 6 -15 13 -22 10 -10 9 -11 -3
-6 -13 5 -15 -35 -13 -322 l1 -326 -30 -29 c-42 -39 -25 -35 26 7 24 19 46 35
50 35 3 0 6 -29 6 -64 0 -35 7 -103 15 -152 64 -374 251 -595 557 -658 113
-23 163 -20 68 4 -235 61 -405 215 -464 421 -13 46 -56 289 -56 319 0 5 4 10
9 10 5 0 14 -21 21 -47 43 -173 135 -294 271 -357 41 -19 85 -37 99 -41 24 -6
24 -5 -5 17 -129 100 -192 174 -250 293 -48 99 -71 183 -81 291 l-7 70 54 17
c85 27 152 35 333 42 184 8 263 23 312 60 41 32 50 70 28 126 -9 24 -19 63
-21 87 -5 39 -2 45 31 75 40 37 46 69 20 106 -15 21 -15 26 5 79 l22 56 -39
40 c-80 83 -79 115 9 197 85 79 82 117 -16 189 -149 110 -224 235 -266 444
-43 217 -102 337 -237 486 -23 25 -41 42 -42 38z"/>
<path d="M1709 4258 c-98 -116 -134 -170 -91 -137 15 13 16 12 4 -3 -8 -10
-19 -16 -25 -15 -7 1 -11 -6 -11 -15 1 -10 -2 -16 -5 -13 -10 6 -94 -135 -132
-222 -17 -37 -36 -81 -44 -98 -38 -86 -88 -270 -109 -405 -69 -442 27 -911
261 -1280 89 -141 215 -296 209 -257 -3 25 -118 167 -129 160 -6 -4 -8 0 -4
10 3 9 1 19 -5 23 -7 5 -8 2 -3 -6 5 -9 4 -11 -4 -6 -6 4 -9 12 -6 17 8 12
-20 51 -30 41 -5 -4 -5 -1 -1 6 4 6 -1 24 -12 40 -11 15 -40 69 -66 120 -217
433 -261 914 -125 1373 31 105 101 278 140 343 11 19 17 41 13 47 -5 8 -3 9 6
4 10 -6 12 -4 7 8 -3 9 -3 16 2 14 12 -3 138 187 133 202 -3 8 0 11 5 8 12 -7
46 27 37 36 -6 6 20 38 31 37 6 0 8 10 2 16 -2 3 -24 -19 -48 -48z"/>
<path d="M1802 4275 c2 -3 -15 -26 -39 -51 -30 -31 -42 -51 -38 -62 3 -9 3
-13 -1 -9 -4 4 -16 0 -26 -10 -20 -18 -25 -38 -6 -27 7 4 8 3 4 -5 -4 -6 -11
-9 -16 -6 -11 7 -122 -184 -169 -292 -230 -529 -205 -1124 67 -1641 21 -40 42
-69 47 -65 4 5 5 3 1 -4 -7 -13 79 -143 95 -143 6 0 8 -4 5 -9 -8 -12 64 -92
77 -84 6 4 8 0 4 -10 -7 -18 8 -33 17 -18 8 13 -34 62 -47 54 -6 -4 -8 0 -4
10 3 9 2 19 -4 23 -5 3 -34 41 -63 85 -29 43 -56 76 -61 71 -4 -4 -5 -2 -1 5
8 15 -28 76 -39 65 -5 -4 -5 -2 -1 5 4 7 -10 45 -30 85 -213 422 -247 943 -93
1409 37 113 121 294 175 381 14 21 22 44 18 50 -4 7 -3 8 4 4 6 -4 16 4 23 16
7 13 36 54 66 92 54 69 62 86 41 86 -6 0 -9 -2 -6 -5z"/>
<path d="M2615 3910 c5 -15 3 -18 -9 -14 -12 5 -18 -2 -23 -27 -4 -19 -6 -38
-5 -42 1 -5 -2 -6 -7 -3 -5 3 -12 -1 -15 -10 -9 -22 90 -65 151 -65 59 -1 91
11 123 46 25 26 25 27 5 42 -30 23 -156 80 -193 87 -30 5 -33 4 -27 -14z"/>
<path d="M2480 3503 c-66 -58 -130 -126 -183 -196 -57 -77 -132 -239 -158
-342 -50 -203 -17 -486 82 -702 32 -71 44 -80 34 -27 -4 24 -3 34 4 29 14 -8
14 -10 -8 93 -57 257 -50 508 20 723 47 144 142 312 239 422 23 26 38 47 33
47 -5 0 -33 -21 -63 -47z"/>
<path d="M2504 3278 c-97 -134 -133 -239 -141 -413 -4 -97 -1 -137 15 -210 19
-86 102 -312 137 -372 18 -31 19 -33 -41 131 -48 130 -51 139 -30 111 13 -19
14 -18 13 7 -1 14 -5 24 -9 21 -12 -7 -9 160 3 177 8 12 9 9 5 -12 -4 -15 0
-53 8 -85 8 -32 19 -80 24 -108 19 -93 23 -107 27 -103 2 2 -2 35 -10 73 -22
105 -37 273 -30 340 8 74 24 171 32 192 4 11 2 14 -5 9 -6 -3 -14 -28 -18 -54
-3 -26 -11 -52 -16 -59 -5 -6 -8 -22 -7 -35 5 -54 -1 -113 -10 -99 -7 11 -11
4 -13 -25 -2 -21 -2 29 0 111 2 83 8 163 12 178 7 20 6 26 -2 21 -7 -5 -9 0
-6 14 4 12 2 22 -3 22 -5 0 -9 5 -9 11 0 5 4 7 10 4 5 -3 7 0 4 9 -5 12 29 93
45 106 10 9 71 100 66 100 -3 0 -25 -28 -51 -62z"/>
<path d="M2917 2917 c-114 -172 -177 -379 -177 -580 0 -154 54 -359 135 -516
62 -121 85 -147 30 -34 -39 79 -44 96 -34 114 6 12 7 19 1 15 -17 -10 -35 22
-28 54 4 20 2 30 -7 30 -9 0 -12 39 -12 155 0 97 4 155 10 155 6 0 4 4 -2 8
-10 6 -10 12 3 28 15 18 15 18 8 -5 -4 -17 -3 -21 6 -16 9 6 9 3 1 -13 -6 -11
-11 -31 -10 -44 1 -23 1 -23 9 2 7 22 8 22 9 4 1 -27 31 -127 37 -122 2 3 -3
36 -11 74 -28 130 -10 313 40 412 10 18 14 36 11 39 -3 4 -6 2 -6 -4 0 -5 -11
-22 -25 -37 -17 -18 -25 -39 -26 -64 -1 -37 -1 -37 -11 -9 -8 23 -13 26 -24
16 -20 -17 -28 -5 -14 21 10 18 9 24 -1 31 -8 5 -9 9 -4 9 6 0 10 20 10 44 0
24 3 42 6 40 9 -5 28 42 25 62 -2 11 3 27 12 37 8 9 11 17 7 17 -4 0 -1 8 7
18 19 21 72 112 65 112 -2 0 -20 -24 -40 -53z"/>
<path d="M2421 2219 c-2 -286 94 -526 286 -712 116 -113 265 -205 421 -261 81
-29 92 -31 92 -16 0 6 -7 10 -15 10 -17 0 -20 17 -4 22 6 2 -24 23 -67 46
-245 132 -469 353 -579 571 -35 70 -89 237 -105 326 -24 133 -28 135 -29 14z"/>
<path d="M3306 2125 c4 -16 7 -38 8 -47 0 -9 5 -14 10 -11 5 4 7 -3 4 -15 -4
-13 -2 -20 3 -16 6 3 8 -12 7 -36 -3 -44 -5 -43 -46 16 -7 11 -5 3 4 -16 50
-106 149 -193 274 -238 36 -13 61 -19 55 -15 -5 5 -42 35 -81 66 -103 82 -178
186 -238 327 -3 8 -3 2 0 -15z"/>
<path d="M3290 1754 c0 -5 11 -29 25 -53 28 -49 31 -58 12 -42 -8 6 -17 8 -20
4 -4 -3 -15 0 -24 7 -10 7 16 -21 58 -62 113 -112 247 -171 414 -183 l70 -5
-60 14 c-201 47 -359 147 -444 281 -17 27 -31 45 -31 39z"/>
<path d="M2510 1295 c0 -9 226 -74 310 -89 167 -31 501 -48 514 -27 8 12 -41
19 -197 31 -146 10 -277 31 -387 61 -108 29 -119 30 -85 15 29 -14 27 -14 -34
-9 -36 2 -75 9 -88 14 -27 10 -33 11 -33 4z"/>
</g>
</svg>
